HIERARCHY
ROOT Hips
{
 OFFSET 0.000000 0.000000 0.000000
 CHANNELS 6 Xposition Yposition Zposition Yrotation Xrotation Zrotation
 JOINT Chest
 {
  OFFSET 0.000000 9.585900 0.002600
  CHANNELS 3 Yrotation Xrotation Zrotation
  JOINT Chest2
  {
   OFFSET 0.000000 9.601200 -0.005300
   CHANNELS 3 Yrotation Xrotation Zrotation
   JOINT Chest3
   {
    OFFSET 0.000000 9.561800 0.000000
    CHANNELS 3 Yrotation Xrotation Zrotation
    JOINT Chest4
    {
     OFFSET 0.000000 9.552100 0.000000
     CHANNELS 3 Yrotation Xrotation Zrotation
     JOINT Neck
     {
      OFFSET 0.000000 14.453000 0.000000
      CHANNELS 3 Yrotation Xrotation Zrotation
      JOINT Head
      {
       OFFSET 0.000000 8.936500 -0.011300
       CHANNELS 3 Yrotation Xrotation Zrotation
       End Site
       {
        OFFSET 0.000000 17.073600 -0.006000
       }
      }
     }
     JOINT RightCollar
     {
      OFFSET -2.921100 9.558500 0.000000
      CHANNELS 3 Yrotation Xrotation Zrotation
      JOINT RightShoulder
      {
       OFFSET -13.519700 0.000000 0.000000
       CHANNELS 3 Yrotation Xrotation Zrotation
       JOINT RightElbow
       {
        OFFSET 0.000000 -29.696600 0.000000
        CHANNELS 3 Yrotation Xrotation Zrotation
        JOINT RightWrist
        {
         OFFSET 0.000000 -24.004700 0.000000
         CHANNELS 3 Yrotation Xrotation Zrotation
         End Site
         {
          OFFSET 0.000000 -17.728500 0.000000
         }
        }
       }
      }
     }
     JOINT LeftCollar
     {
      OFFSET 2.921100 9.558500 0.000000
      CHANNELS 3 Yrotation Xrotation Zrotation
      JOINT LeftShoulder
      {
       OFFSET 13.519700 0.000000 0.000000
       CHANNELS 3 Yrotation Xrotation Zrotation
       JOINT LeftElbow
       {
        OFFSET 0.000000 -29.696600 0.000000
        CHANNELS 3 Yrotation Xrotation Zrotation
        JOINT LeftWrist
        {
         OFFSET 0.000000 -24.004700 0.000000
         CHANNELS 3 Yrotation Xrotation Zrotation
         End Site
         {
          OFFSET 0.000000 -17.728500 0.000000
         }
        }
       }
      }
     }
    }
   }
  }
 }
 JOINT RightHip
 {
  OFFSET -7.771700 -0.012900 -0.001300
  CHANNELS 3 Yrotation Xrotation Zrotation
  JOINT RightKnee
  {
   OFFSET 0.000000 -40.869800 0.001200
   CHANNELS 3 Yrotation Xrotation Zrotation
   JOINT RightAnkle
   {
    OFFSET 0.000000 -39.717900 0.002100
    CHANNELS 3 Yrotation Xrotation Zrotation
    JOINT RightToe
    {
     OFFSET 0.000000 -4.965400 11.033500
     CHANNELS 3 Yrotation Xrotation Zrotation
     End Site
     {
      OFFSET 0.000000 -1.423100 5.872300
     }
    }
   }
  }
 }
 JOINT LeftHip
 {
  OFFSET 7.771700 -0.012900 -0.001300
  CHANNELS 3 Yrotation Xrotation Zrotation
  JOINT LeftKnee
  {
   OFFSET 0.000000 -40.869800 0.001200
   CHANNELS 3 Yrotation Xrotation Zrotation
   JOINT LeftAnkle
   {
    OFFSET 0.000000 -39.717900 0.002100
    CHANNELS 3 Yrotation Xrotation Zrotation
    JOINT LeftToe
    {
     OFFSET 0.000000 -4.965400 11.033500
     CHANNELS 3 Yrotation Xrotation Zrotation
     End Site
     {
      OFFSET 0.000000 -1.423100 5.872300
     }
    }
   }
  }
 }
}
MOTION
Frames: 13
Frame Time: 0.008333
-32.245849 50.687859 40.376649 176.217269 -34.503499 -9.905849 1.084973 15.138938 4.025014 0.477800 8.646979 2.233579 0.690908 10.739287 2.765847 0.444915 8.710671 2.287470 5.145100 18.249853 -1.147821 5.754314 -6.362559 -2.439904 1.433537 2.677540 -2.188967 -16.468465 -6.839302 7.269135 27.034808 -79.977485 -12.912192 9.441354 -6.735416 -10.072270 -8.343669 4.031846 -2.228231 6.409692 -2.894242 -3.131316 -85.309248 -80.462537 90.333375 13.466893 -9.318053 -0.936410 -11.905113 -31.237984 6.174433 24.912835 81.861681 20.074261 -2.184192 -12.828144 3.790605 0.032055 0.050969 -0.322282 -13.687625 -45.347907 16.462233 174.921933 76.796139 170.949892 -0.958141 -19.647253 0.267769 -0.045765 0.002644 -0.059446
-32.255180 50.678909 40.355860 176.177688 -34.476340 -9.908515 1.071370 15.168953 4.036368 0.480287 8.652262 2.250875 0.699643 10.741019 2.787053 0.442371 8.720485 2.306420 5.182275 18.259937 -1.159004 5.763487 -6.391440 -2.491745 1.452249 2.700868 -2.186089 -16.491344 -6.905402 7.230147 26.575987 -80.017000 -12.494369 9.424102 -6.746113 -10.079684 -8.346617 4.004031 -2.254022 6.366157 -2.926408 -3.082991 -85.250922 -80.447346 90.281387 13.512400 -9.497037 -0.725880 -12.043398 -31.198439 6.207713 25.156345 81.892425 20.383027 -2.116312 -12.986815 3.656573 0.025988 0.097818 -0.292620 -13.681498 -45.373551 16.522246 174.891980 76.752301 170.888712 -0.996068 -19.683354 0.328170 -0.054454 -0.001596 -0.065906
-32.265279 50.668798 40.335250 176.133962 -34.427990 -9.917339 1.057851 15.181338 4.057721 0.482593 8.657143 2.267495 0.669913 10.800528 2.841626 0.473597 8.673839 2.282262 5.221130 18.272017 -1.166822 5.808684 -6.380253 -2.517504 1.477835 2.702020 -2.198613 -16.564797 -6.895346 7.209805 26.309771 -80.093332 -12.215336 9.407997 -6.763148 -10.082934 -8.325050 3.937847 -2.308518 6.287331 -2.935877 -3.008029 -85.179193 -80.367445 90.243401 13.553259 -9.700865 -0.504356 -12.184324 -31.181327 6.234816 25.474120 81.927288 20.770006 -2.025123 -13.138977 3.490626 0.028063 0.136582 -0.273680 -13.687177 -45.422415 16.602915 174.959302 76.717775 170.937185 -1.029945 -19.710981 0.363998 -0.043493 -0.004925 -0.051898
-32.276511 50.661877 40.313889 176.081520 -34.369534 -9.918257 1.051473 15.187383 4.077654 0.507283 8.623897 2.274066 0.639770 10.859806 2.886467 0.484169 8.661510 2.282878 5.260038 18.285547 -1.169729 5.903899 -6.299795 -2.484347 1.504282 2.699416 -2.206107 -16.622927 -6.898554 7.179929 26.033854 -80.153732 -11.933566 9.396651 -6.781613 -10.097909 -8.342305 3.912369 -2.330068 6.241164 -2.993162 -2.979496 -85.121134 -80.240974 90.239815 13.585535 -9.912899 -0.298410 -12.319964 -31.185473 6.245891 25.882228 81.971521 21.244607 -1.931340 -13.310426 3.319700 0.002022 0.163616 -0.211803 -13.688167 -45.478860 16.698212 175.016529 76.679972 170.958083 -1.083948 -19.741399 0.422375 -0.037769 -0.011765 -0.045459
-32.285597 50.665142 40.292394 176.031280 -34.303581 -9.928828 1.049463 15.190926 4.110176 0.494055 8.646260 2.291129 0.653593 10.846625 2.897720 0.484445 8.665303 2.296510 5.299633 18.300590 -1.167513 5.962030 -6.257621 -2.472989 1.527784 2.691049 -2.208560 -16.646926 -6.930719 7.138076 25.828035 -80.187898 -11.733492 9.378784 -6.786355 -10.146360 -8.368276 3.874355 -2.356022 6.200844 -3.044728 -2.948649 -85.080860 -80.083918 90.267877 13.611896 -10.123956 -0.122221 -12.465620 -31.214460 6.257632 26.457931 82.029600 21.881654 -1.844713 -13.495820 3.158604 -0.010902 0.194399 -0.165207 -13.671633 -45.530716 16.836114 175.245314 76.660124 171.139587 -1.172043 -19.775168 0.510896 -0.012731 -0.014928 -0.027570
-32.294929 50.687922 40.270118 175.989593 -34.235809 -9.929565 1.040673 15.197052 4.133112 0.483633 8.668447 2.308096 0.661811 10.831963 2.905099 0.483608 8.668448 2.308150 5.339451 18.319167 -1.160500 6.004684 -6.234652 -2.475099 1.555564 2.645806 -2.243946 -16.667718 -6.927295 7.119012 25.862855 -80.220408 -11.751756 9.348005 -6.758038 -10.235438 -8.426260 3.844833 -2.363653 6.194296 -3.108658 -2.940967 -85.037454 -79.913490 90.299422 13.638001 -10.330094 0.026142 -12.618960 -31.281969 6.247998 27.332032 82.108303 22.803872 -1.764520 -13.668513 3.010952 -0.022660 0.217129 -0.144018 -13.660566 -45.570153 16.930527 175.343968 76.651534 171.182672 -1.223715 -19.799917 0.591874 -0.018174 -0.026722 -0.024330
-32.297950 50.742233 40.248730 175.986279 -34.162521 -9.969647 1.010664 15.204773 4.180552 0.481317 8.670810 2.317567 0.659155 10.834827 2.916891 0.481303 8.670797 2.317618 5.379084 18.341472 -1.148746 6.046021 -6.207561 -2.472089 1.580981 2.599681 -2.275674 -16.670474 -6.947870 7.097075 25.437890 -80.177738 -11.432540 9.389801 -6.793510 -10.247818 -8.457078 3.791534 -2.387828 6.165309 -3.153494 -2.913457 -84.979614 -79.746680 90.314052 13.671950 -10.531126 0.160637 -12.833369 -31.387029 6.268267 28.488000 82.208707 23.992718 -1.680622 -13.847318 2.861386 -0.057338 0.253829 -0.125948 -13.701958 -45.583947 17.034161 175.466126 76.680352 171.258981 -1.227353 -19.784389 0.650963 -0.040080 -0.064343 -0.029751
-32.287201 50.839148 40.230645 175.988379 -34.084270 -10.069188 0.997734 15.208151 4.290814 0.478272 8.673006 2.325201 0.655487 10.837539 2.926378 0.478270 8.672989 2.325251 5.417682 18.364718 -1.132620 6.085153 -6.179668 -2.464020 1.595810 2.579859 -2.276065 -16.664125 -7.004531 7.059506 25.367654 -80.128881 -11.434651 9.400998 -6.798299 -10.290166 -8.473471 3.725548 -2.415009 6.127845 -3.188251 -2.878844 -84.906273 -79.601487 90.300689 13.712739 -10.727123 0.298598 -13.103927 -31.517201 6.375831 29.782672 82.331523 25.308366 -1.612110 -14.044882 2.715969 -0.072489 0.337133 -0.125754 -13.763194 -45.540359 17.228788 175.750334 76.776605 171.507388 -1.253428 -19.765269 0.717501 -0.040647 -0.096340 -0.027587
-32.262536 50.987094 40.212947 175.984351 -34.027284 -10.214629 1.013439 15.228199 4.454872 0.475434 8.675227 2.331271 0.652071 10.840354 2.933896 0.486154 8.635418 2.309441 5.451206 18.425500 -1.083226 6.121015 -6.151438 -2.450417 1.591093 2.600989 -2.252971 -16.687558 -7.016588 7.050014 25.618324 -80.106847 -11.702662 9.406928 -6.782991 -10.343310 -8.503647 3.700720 -2.417282 6.097273 -3.222441 -2.845020 -84.806015 -79.493266 90.239733 13.754913 -10.918585 0.456767 -13.403666 -31.640086 6.567721 31.044026 82.482871 26.580661 -1.603653 -14.275491 2.627930 -0.033892 0.460714 -0.165914 -13.828760 -45.415311 17.460060 176.008462 76.918674 171.756224 -1.288995 -19.791099 0.760288 -0.026777 -0.091296 -0.019371
-32.214071 51.182860 40.203340 176.003703 -33.945451 -10.480312 1.044871 15.184542 4.724004 0.468213 8.714080 2.343860 0.655586 10.804192 2.925643 0.483770 8.638430 2.314029 5.484141 18.484466 -1.036486 6.153250 -6.120958 -2.431917 1.584140 2.617392 -2.234219 -16.699975 -7.032911 7.049696 25.825804 -80.063501 -11.932826 9.415600 -6.762928 -10.394734 -8.531672 3.672886 -2.415552 6.070338 -3.257417 -2.812612 -84.669017 -79.432811 90.120707 13.795303 -11.097862 0.647728 -13.799250 -31.766779 6.917506 32.182786 82.653600 27.715302 -1.523903 -14.567982 2.517372 -0.069534 0.635412 -0.174290 -13.973489 -45.280170 17.852196 176.386260 77.088888 172.150642 -1.318775 -19.762011 0.819067 -0.022648 -0.128535 -0.018401
-32.162991 51.416337 40.195253 176.051022 -33.859117 -10.734366 1.043255 15.141142 4.962490 0.470918 8.752171 2.356548 0.651920 10.767256 2.918694 0.473762 8.676736 2.336484 5.518390 18.509406 -1.016019 6.180245 -6.089290 -2.409971 1.572832 2.647250 -2.243679 -16.692597 -7.094109 7.074211 25.935883 -80.013483 -12.071400 9.430339 -6.731929 -10.444224 -8.538799 3.603330 -2.429815 6.033237 -3.289383 -2.777242 -84.506494 -79.427679 89.960224 13.829932 -11.252600 0.873715 -14.195425 -31.887954 7.256218 33.172101 82.820625 28.692972 -1.464807 -14.838430 2.394415 -0.132904 0.789708 -0.134325 -14.129861 -45.118761 18.181118 176.561856 77.302119 172.351342 -1.329987 -19.699622 0.837698 -0.038521 -0.181221 -0.020089
-32.102417 51.673087 40.191082 176.098789 -33.762495 -11.003824 1.062540 15.182576 5.241357 0.464915 8.675285 2.342592 0.646531 10.784931 2.931526 0.468140 8.675955 2.340265 5.546645 18.532700 -0.991112 6.202667 -6.059766 -2.386735 1.575687 2.621318 -2.280401 -16.701542 -7.080574 7.120672 25.987214 -79.966934 -12.149420 9.445755 -6.693245 -10.484273 -8.533537 3.530267 -2.448818 5.972918 -3.314189 -2.732782 -84.326478 -79.461168 89.813680 13.878857 -11.370026 1.080241 -14.582066 -31.987176 7.625599 33.982094 82.960626 29.498642 -1.436094 -15.113292 2.315064 -0.147977 0.974209 -0.142108 -14.320598 -44.945874 18.536402 176.645035 77.534534 172.462607 -1.338587 -19.618245 0.831577 -0.061863 -0.243190 -0.022023
-32.043372 51.936890 40.185552 176.153788 -33.676723 -11.226323 1.056434 15.197979 5.455543 0.466496 8.600107 2.329892 0.641179 10.838244 2.951211 0.466528 8.673471 2.345083 5.566817 18.552309 -0.964416 6.225282 -6.036795 -2.365808 1.578122 2.591251 -2.322245 -16.716925 -7.049338 7.176626 25.987816 -79.924146 -12.169665 9.453441 -6.660421 -10.508677 -8.555622 3.464898 -2.453774 5.931437 -3.340150 -2.704871 -84.152852 -79.507157 89.673570 13.951420 -11.456696 1.282918 -14.883163 -32.058720 7.911520 34.630863 83.057658 30.175838 -1.423928 -15.331841 2.245784 -0.134533 1.123930 -0.163923 -14.397283 -44.778357 18.784510 176.674953 77.782581 172.549762 -1.376409 -19.532661 0.849010 -0.073583 -0.301424 -0.026612
